<svg width="100" height="40" viewBox="0 0 100 40" fill="none" xmlns="http://www.w3.org/2000/svg">
<path d="M94.2093 35.9801C94.2081 35.0821 94.2058 34.1852 94.2046 33.2872C94.4274 33.0818 94.707 33.1143 94.9739 33.1097C95.5528 33.0992 96.1329 33.1062 96.7131 33.1039C97.0739 33.1027 97.2456 32.9403 97.2433 32.5794C97.2421 32.4054 97.2491 32.2314 97.2491 32.0585C97.2491 22.6513 97.2491 13.2441 97.2491 3.83574C97.2491 3.1133 96.8856 2.75131 96.1585 2.74976C85.4739 2.74976 74.7904 2.74976 64.1058 2.74976C63.9897 2.74976 63.8737 2.74744 63.7577 2.75208C63.1277 2.77181 63.0697 2.82518 63.0604 3.46099C63.0511 4.07939 63.0639 4.6978 63.0546 5.31504C63.0511 5.5645 63.0674 5.82323 62.8736 6.02511C61.9802 6.02511 61.0868 6.02511 60.1934 6.02511C60.1911 4.18962 60.2004 2.35412 60.1784 0.518626C60.1737 0.112543 60.2886 0 60.6958 0C73.6243 0.0104421 86.5529 0.0104421 99.4814 0C99.884 0 100 0.100941 100 0.511664C99.9884 12.1628 99.9896 23.8139 100 35.465C100 35.8664 99.8979 35.9917 99.4872 35.9871C97.7294 35.9662 95.9705 35.9801 94.2116 35.9801H94.2093Z" fill="black"/>
<path d="M29.5062 22.9576C29.5062 20.8123 29.5201 18.667 29.4946 16.5218C29.4888 16.0728 29.6257 15.9567 30.0503 15.9857C30.5887 16.0217 31.1328 16.0159 31.6735 15.9869C32.0355 15.9672 32.1283 16.0913 32.1237 16.4452C32.1051 18.0104 32.1318 19.5767 32.1051 21.1418C32.0981 21.5758 32.2107 21.6987 32.6492 21.6883C33.9441 21.657 35.2401 21.6593 36.5337 21.6871C36.9734 21.6964 37.1301 21.6013 37.1196 21.1233C37.086 19.5976 37.1196 18.0695 37.0988 16.5427C37.093 16.1435 37.1463 15.9753 37.6174 15.9811C39.9367 16.0101 42.2572 16.0043 44.5765 15.9846C44.9872 15.9811 45.116 16.1018 45.0893 16.5044C45.0568 16.9859 45.0615 17.4708 45.0893 17.9535C45.1102 18.3213 44.9652 18.4095 44.6194 18.406C43.1123 18.3898 41.604 18.4211 40.0968 18.3863C39.5956 18.3747 39.4796 18.5371 39.5051 19.0047C39.5445 19.7368 39.5387 20.4735 39.5051 21.2068C39.4865 21.6082 39.6385 21.6883 40.004 21.6837C41.4531 21.6663 42.9034 21.6883 44.3537 21.6686C44.7412 21.6628 44.9118 21.744 44.8805 22.171C44.8433 22.6896 44.8433 23.2163 44.8805 23.735C44.9106 24.1631 44.7378 24.2455 44.3502 24.2408C42.9011 24.2211 41.4508 24.2431 40.0005 24.2257C39.642 24.2211 39.4888 24.2919 39.5051 24.6945C39.5376 25.4858 39.5341 26.2794 39.5062 27.0706C39.4935 27.4361 39.6141 27.5231 39.9645 27.5185C41.4914 27.4999 43.0194 27.5278 44.5452 27.4999C44.9884 27.4918 45.1288 27.6241 45.0881 28.0534C45.029 28.6636 45.3434 29.4816 44.9628 29.8308C44.6322 30.1337 43.8258 29.9283 43.2294 29.9306C41.3545 29.9353 39.4796 29.919 37.6046 29.9422C37.1927 29.9469 37.093 29.8332 37.0999 29.4306C37.1243 27.8654 37.0953 26.2991 37.1196 24.7339C37.1266 24.3232 37.0071 24.2165 36.6045 24.2246C35.2714 24.2501 33.9371 24.2524 32.604 24.2234C32.1759 24.2141 32.1039 24.3627 32.1086 24.749C32.1295 26.2944 32.1039 27.841 32.1271 29.3876C32.1329 29.796 32.0656 29.9828 31.6015 29.9434C31.0644 29.8981 30.5179 29.9051 29.9795 29.9422C29.5816 29.9689 29.4992 29.8227 29.5015 29.4538C29.5166 27.2888 29.5085 25.1249 29.5085 22.9599L29.5062 22.9576Z" fill="black"/>
<path d="M14.4876 25.6204C13.2902 28.5894 9.75151 30.6604 6.21975 29.991C2.4339 29.2728 -0.0536523 25.9835 0.000878868 21.9772C0.0519293 18.3236 2.67871 15.184 6.23947 14.5216C9.61112 13.8939 13.3645 15.908 14.5723 19.0291C13.578 19.0291 12.5999 19.0244 11.6218 19.0314C11.3399 19.0337 11.2297 18.8109 11.0753 18.6532C10.153 17.7018 9.05769 17.1472 7.7153 17.0474C5.57698 16.8884 3.88419 18.3666 3.23794 19.9886C2.47566 21.9007 2.65782 23.7361 3.78209 25.4545C5.37046 27.8805 8.5994 28.2077 10.7528 26.1436C11.167 25.7457 11.5626 25.5786 12.123 25.6111C12.8934 25.6552 13.6673 25.6215 14.4876 25.6215V25.6204Z" fill="black"/>
<path d="M15.5355 22.9586C15.5355 20.7947 15.5436 18.6309 15.5274 16.467C15.5251 16.1004 15.6063 15.9577 15.9996 15.9797C16.6157 16.0134 17.2364 15.9995 17.8537 15.9844C18.1553 15.9763 18.3027 16.0319 18.3027 16.3893C18.2911 20.775 18.2922 25.1607 18.3015 29.5464C18.3015 29.8538 18.2052 29.9455 17.9047 29.9362C17.2678 29.9165 16.6285 29.9037 15.9927 29.9397C15.5901 29.9629 15.5251 29.8074 15.5274 29.4489C15.5425 27.2851 15.5344 25.1212 15.5344 22.9574L15.5355 22.9586Z" fill="black"/>
<path d="M16.9695 36.776C16.9695 36.1774 16.9637 35.5787 16.973 34.9811C16.9753 34.8292 16.8837 34.5704 17.1575 34.5855C17.3988 34.5994 17.7712 34.3906 17.8641 34.7189C17.9696 35.0914 18.0648 34.8558 18.1866 34.7827C18.8294 34.3964 19.4698 34.4092 20.0824 34.8315C20.289 34.9742 20.4015 35.0554 20.6602 34.8686C21.2485 34.4428 21.9214 34.3778 22.57 34.7352C23.1768 35.0693 23.3462 35.6448 23.3299 36.3096C23.3114 37.1195 23.3044 37.9316 23.3346 38.7415C23.3485 39.1302 23.1466 39.1255 22.874 39.1174C22.6164 39.1104 22.3797 39.1557 22.3948 38.7508C22.4226 37.9792 22.411 37.2065 22.3994 36.4338C22.3902 35.7945 22.0676 35.4278 21.5362 35.4139C20.9897 35.4 20.6452 35.7875 20.6359 36.4535C20.6254 37.2065 20.608 37.9606 20.6428 38.7113C20.6626 39.1383 20.4305 39.1081 20.1416 39.1197C19.84 39.1313 19.6868 39.0803 19.7007 38.7206C19.7286 37.9885 19.7181 37.2541 19.7065 36.5196C19.6961 35.813 19.3538 35.4093 18.7934 35.4116C18.2423 35.4139 17.9058 35.8212 17.8954 36.5347C17.8838 37.268 17.8722 38.0024 17.9012 38.7357C17.9163 39.1197 17.719 39.1232 17.4406 39.1162C17.1784 39.1093 16.9452 39.1429 16.9626 38.7438C16.9904 38.0883 16.9695 37.4316 16.9695 36.7749V36.776Z" fill="black"/>
<path d="M13.7086 39.1558C13.0136 39.1558 12.3232 39.0038 11.7188 38.5838C11.5668 38.4782 11.1804 38.4005 11.4496 38.1C11.6352 37.8935 11.7327 37.3946 12.2327 37.7438C12.7548 38.1081 13.3651 38.2102 13.9986 38.165C14.5787 38.1232 14.9802 37.7798 14.9906 37.3157C15.0045 36.7089 14.5718 36.5441 14.0984 36.4432C13.7225 36.3631 13.3315 36.3446 12.9614 36.2448C12.1422 36.0243 11.6445 35.3653 11.6422 34.5578C11.6399 33.6923 12.1202 33.0274 12.9428 32.7838C13.8257 32.5216 14.6588 32.7003 15.4524 33.1179C15.5905 33.191 15.913 33.2525 15.6589 33.5031C15.4675 33.6911 15.5174 34.2352 15.0022 34.0009C14.5625 33.8013 14.1158 33.6261 13.6192 33.6424C13.0611 33.6609 12.6725 33.9545 12.6237 34.4128C12.5634 34.9755 12.9034 35.2122 13.3872 35.3166C13.6877 35.3816 13.9917 35.4384 14.2945 35.4918C15.3491 35.6763 15.9849 36.3678 15.9652 37.3134C15.9432 38.3181 15.247 39.0073 14.1436 39.1175C14.0091 39.1314 13.8745 39.1407 13.7062 39.1558H13.7086Z" fill="black"/>
<path d="M33.024 36.8469C33.024 36.4988 33.0298 36.1519 33.0217 35.805C33.0171 35.573 33.0995 35.3398 32.7073 35.2516C32.4161 35.1866 32.5333 34.6622 32.6203 34.6448C33.3257 34.5114 32.98 33.9835 33.0066 33.6412C33.0333 33.2954 33.1111 33.169 33.4731 33.1841C33.7759 33.1957 33.9534 33.2421 33.9151 33.5948C33.8931 33.8048 33.9221 34.0194 33.9081 34.2317C33.8931 34.4696 33.965 34.6088 34.2284 34.5705C34.5115 34.5288 34.588 34.6518 34.5857 34.9256C34.5822 35.1889 34.5277 35.3293 34.2353 35.2887C33.9731 35.2516 33.907 35.4013 33.9093 35.6345C33.9174 36.3677 33.9093 37.1022 33.9174 37.8354C33.9197 38.0315 33.9546 38.2647 34.211 38.2531C34.783 38.2276 34.5672 38.6476 34.5637 38.8924C34.5579 39.2997 34.2144 39.1001 34.0346 39.0931C33.4139 39.0688 33.0797 38.7369 33.0414 38.1209C33.0148 37.6974 33.0368 37.2716 33.0368 36.8469C33.0322 36.8469 33.0287 36.8469 33.024 36.8469Z" fill="black"/>
<path d="M40.0079 36.7935C40.0079 36.1948 39.9998 35.5973 40.0137 34.9998C40.0172 34.8536 39.8966 34.5972 40.1669 34.5867C40.4152 34.5774 40.8085 34.4173 40.8967 34.6842C41.0348 35.1042 41.1577 34.8002 41.2703 34.7341C41.7205 34.4707 42.1904 34.4742 42.6649 34.6227C42.9619 34.7155 43.1394 34.8605 42.8227 35.175C42.579 35.4175 42.4433 35.675 41.985 35.4523C41.4954 35.2144 40.9698 35.6634 40.9501 36.2737C40.9222 37.0836 40.9118 37.8957 40.9466 38.7044C40.9651 39.1476 40.7122 39.0815 40.4407 39.0989C40.1379 39.1186 39.9847 39.0629 40.0021 38.7032C40.0312 38.0674 40.0103 37.4305 40.0103 36.7935H40.0079Z" fill="black"/>
<path d="M32.0078 34.8443C31.7084 35.2724 31.5158 35.7249 30.8127 35.4314C30.373 35.2469 29.9263 35.7261 29.9089 36.2934C29.8857 37.0824 29.8776 37.8737 29.9042 38.6626C29.917 39.0397 29.7755 39.1116 29.4378 39.1035C29.1246 39.0966 28.9529 39.078 28.9621 38.6789C28.9911 37.4467 28.9703 36.2134 28.9761 34.98C28.9761 34.8431 28.8902 34.6157 29.0956 34.5914C29.3508 34.56 29.7581 34.4394 29.8462 34.6575C29.975 34.9754 30.0435 34.857 30.2187 34.7561C30.8232 34.4104 31.4149 34.4347 32.0066 34.8443H32.0078Z" fill="black"/>
<path d="M94.3818 32.6875C94.3818 24.183 94.3818 15.6796 94.3818 7.17504C94.3818 5.87906 94.3517 5.84889 93.0487 5.84889C83.3248 5.84889 73.602 5.84889 63.878 5.84889C63.5497 5.84889 63.2202 5.83265 62.893 5.86629C62.3047 5.83845 61.7153 5.85353 61.1271 5.85585C60.808 5.85701 60.4762 5.80712 60.1943 6.02293C59.1709 6.03337 58.1465 6.07862 57.1243 6.03917C56.5813 6.01828 56.4676 6.18884 56.4687 6.70631C56.4838 17.2563 56.485 27.8075 56.4664 38.3576C56.4664 38.8994 56.6184 39.0085 57.1312 39.0073C66.0604 38.9911 74.9885 38.9957 83.9176 38.9957C87.164 38.9957 90.4115 38.9876 93.6578 39.0061C94.086 39.0085 94.2194 38.9122 94.2008 38.4701C94.1672 37.6417 94.202 36.8098 94.2089 35.9791C94.3563 35.7842 94.3737 35.5556 94.3737 35.3247C94.3737 34.6378 94.3911 33.951 94.3633 33.2653C94.3853 33.0727 94.3807 32.8789 94.3807 32.6863L94.3818 32.6875ZM78.6177 29.9551C78.3044 29.9656 78.1803 29.8263 78.0782 29.5688C77.6999 28.622 77.2973 27.6845 76.9295 26.7343C76.8182 26.4454 76.6917 26.3201 76.3564 26.3259C74.9653 26.3491 73.5741 26.3514 72.183 26.3259C71.8175 26.3189 71.6853 26.4733 71.5692 26.7714C71.2038 27.7031 70.8035 28.6197 70.445 29.5537C70.3301 29.8519 70.1839 29.9563 69.859 29.9551C67.0385 29.9412 64.2168 29.94 61.3963 29.9551C61.0192 29.9574 60.909 29.86 60.9101 29.4748C60.9229 24.6064 60.9241 19.7381 60.9101 14.8709C60.909 14.466 61.054 14.3848 61.4125 14.4033C61.9137 14.43 62.4196 14.4428 62.9185 14.401C63.4302 14.3581 63.5972 14.4973 63.5926 15.0484C63.5659 18.8737 63.588 22.6978 63.5671 26.5231C63.5648 27.0128 63.6529 27.1822 64.1866 27.1636C65.4989 27.1172 66.8146 27.1323 68.128 27.159C68.5027 27.1671 68.6559 27.0302 68.7928 26.7007C70.2013 23.2884 71.6354 19.8854 73.0369 16.4709C73.1889 16.0996 73.3699 16.001 73.7505 16.0056C75.2414 16.023 75.2449 16.0079 75.8215 17.3793C77.5282 21.439 79.2326 25.501 80.9358 29.5618C80.9799 29.6662 81.0101 29.7753 81.0693 29.947C80.2026 29.947 79.4113 29.9296 78.62 29.9551H78.6177ZM89.3591 28.8135C88.4878 29.5305 87.4622 29.8588 86.3727 29.9099C84.927 29.9783 83.4756 29.9319 82.0276 29.9528C81.7225 29.9574 81.6366 29.8658 81.6366 29.5618C81.6459 25.1773 81.6436 20.7939 81.6413 16.4094C81.6413 16.1866 81.6204 15.9975 81.9545 16.0079C83.4593 16.059 84.9677 15.9174 86.469 16.117C88.279 16.3583 89.5378 17.5232 89.8209 19.2148C90.0263 20.4458 89.6527 21.2696 88.4054 22.3324C91.4928 23.539 91.125 27.362 89.3603 28.8135H89.3591Z" fill="black"/>
<path d="M53.1479 25.0704C53.0075 24.7966 52.7453 24.51 52.7662 24.2478C52.7917 23.9357 53.2465 23.8835 53.4786 23.6712C53.5783 23.5795 53.6862 23.4971 53.7767 23.3973C55.0855 21.9389 55.3315 20.2589 54.6098 18.4953C53.9032 16.7678 52.4483 16.0577 50.6429 16.0182C49.2901 15.9892 47.9361 16.0182 46.5844 15.9846C46.1575 15.9741 46.0356 16.0763 46.0403 16.5195C46.0647 18.8388 46.0519 21.1581 46.0519 23.4774C46.0519 25.4881 46.0612 27.4976 46.0438 29.5083C46.0403 29.8645 46.1308 29.9805 46.4928 29.9596C47.0323 29.9283 47.5776 29.9167 48.1148 29.962C48.58 30.0014 48.6473 29.8135 48.6415 29.4051C48.6183 27.9745 48.6299 26.5439 48.6357 25.1145C48.6357 24.9532 48.5592 24.756 48.7494 24.64C49.0859 24.4346 49.9004 24.6806 50.0837 25.0391C50.853 26.5485 51.6222 28.0592 52.3926 29.5686C52.4854 29.7508 52.5307 29.9608 52.8219 29.9562C53.728 29.9422 54.6342 29.9504 55.654 29.9504C54.7804 28.2495 53.9647 26.6611 53.1491 25.0716L53.1479 25.0704ZM51.121 22.0051C50.3877 22.2452 49.6324 22.1559 48.8829 22.1768C48.6299 22.1837 48.6102 22.0399 48.6125 21.8461C48.6183 21.3252 48.6149 20.8042 48.6149 20.2833C48.6149 19.8203 48.6439 19.3551 48.6067 18.8945C48.5731 18.4698 48.7436 18.3747 49.1323 18.3909C49.767 18.4188 50.4039 18.3758 51.0281 18.5499C51.8798 18.7877 52.3334 19.3678 52.3566 20.2786C52.3787 21.1616 51.9726 21.7243 51.121 22.0039V22.0051Z" fill="black"/>
<path d="M25.2544 16.1262C23.6057 15.8524 21.9384 16.0601 20.2816 15.987C19.843 15.9673 19.698 16.0729 19.7038 16.5439C19.7316 18.688 19.7165 20.8322 19.7165 22.9763C19.7165 25.1401 19.727 27.3028 19.7073 29.4666C19.7038 29.8495 19.8117 29.9632 20.1876 29.94C20.7074 29.9087 21.233 29.904 21.7516 29.94C22.1728 29.9702 22.3108 29.8611 22.3004 29.4109C22.2679 27.963 22.2992 26.5138 22.2807 25.0647C22.276 24.7085 22.3828 24.6052 22.7378 24.6052C23.5082 24.6052 24.2786 24.6203 25.0502 24.5113C27.1908 24.2084 28.6063 22.5946 28.6411 20.3727C28.6759 18.1706 27.3381 16.472 25.2544 16.1251V16.1262ZM25.1581 21.8462C24.3053 22.2859 23.3933 22.1525 22.4953 22.1711C22.2667 22.1757 22.2876 21.9936 22.2876 21.8392C22.2876 21.3195 22.2876 20.7985 22.2876 20.2787C22.2876 19.8552 22.3306 19.4259 22.2772 19.0083C22.2076 18.456 22.4524 18.3469 22.9292 18.3957C23.6138 18.4653 24.3099 18.4015 24.9759 18.6648C25.6999 18.9514 26.0166 19.4898 26.0352 20.2242C26.0538 20.9215 25.831 21.4993 25.1581 21.8462Z" fill="black"/>
<path d="M27.8384 37.326C27.8384 36.8433 27.8431 36.3595 27.8373 35.8768C27.8315 35.4719 27.6911 35.118 27.3662 34.8639C26.8093 34.4289 25.417 34.3882 24.8253 34.7967C24.6733 34.9011 24.3554 35.0507 24.5619 35.2457C24.7348 35.4093 24.8891 35.8664 25.3346 35.5415C25.6781 35.2897 26.1108 35.3454 26.5111 35.4278C26.9381 35.516 26.9508 35.8571 26.9346 36.1994C26.9149 36.6101 26.5958 36.4117 26.4113 36.4314C26.1062 36.4639 25.7929 36.4245 25.4855 36.4442C24.794 36.4871 24.2985 36.9419 24.2301 37.5766C24.1489 38.3296 24.4923 38.8772 25.1919 39.0849C25.6862 39.2322 26.1816 39.2636 26.648 38.9909C26.7989 38.9027 26.8313 38.9526 26.9775 39.0524C27.4173 39.3552 27.8466 39.0744 27.8466 38.5419C27.8466 38.1358 27.8466 37.7309 27.8466 37.3248C27.8442 37.3248 27.8419 37.3248 27.8408 37.3248L27.8384 37.326ZM26.0192 38.2959C25.9716 38.2936 25.8741 38.2924 25.779 38.2832C25.4112 38.2472 25.0539 38.1544 25.0655 37.7019C25.0771 37.2738 25.4309 37.2123 25.7744 37.1891C25.8892 37.1809 26.0238 37.1485 26.1178 37.1937C26.3823 37.3213 26.9276 36.8456 26.9172 37.565C26.9102 38.1335 26.7374 38.289 26.0192 38.2948V38.2959Z" fill="black"/>
<path d="M36.5253 37.1833C36.8711 37.2041 37.2203 37.1879 37.5672 37.1879C37.7215 37.1879 37.8758 37.1879 38.0302 37.1879C39.0651 37.1879 39.1301 37.1113 38.9642 36.0891C38.8272 35.2503 38.1531 34.6087 37.3317 34.5368C36.4395 34.459 35.6888 34.9394 35.4092 35.7828C35.2177 36.3618 35.1899 36.9605 35.3187 37.5522C35.6378 39.0118 37.1542 39.6325 38.42 38.8377C38.9282 38.5175 38.9143 38.3307 38.4096 38.0047C38.1694 37.8492 38.0603 38.0291 37.9049 38.1126C37.2099 38.4862 36.3942 38.2437 36.2144 37.6114C36.1367 37.3376 36.1726 37.1635 36.5253 37.1844V37.1833ZM36.414 35.6761C36.7411 35.2967 37.1437 35.2897 37.5579 35.4916C37.877 35.6471 38.0893 35.9557 38.0209 36.2806C37.9536 36.5985 37.6009 36.3676 37.3816 36.4221C37.2911 36.4442 37.1913 36.4256 37.095 36.4256C36.9801 36.4256 36.8606 36.4453 36.7504 36.421C36.5636 36.3804 36.2921 36.5614 36.2005 36.3015C36.1204 36.0775 36.2608 35.8536 36.414 35.6749V35.6761Z" fill="black"/>
<path d="M72.6272 23.9193C73.1551 22.4887 73.6598 21.1173 74.2202 19.5974C74.6379 20.7159 75.0068 21.6916 75.3677 22.672C75.6732 23.5028 75.377 23.9185 74.4789 23.9193H72.6272Z" fill="black"/>
<path d="M84.2148 25.6575C84.2148 25.1575 84.2194 24.6562 84.2125 24.1562C84.209 23.9531 84.2485 23.829 84.4921 23.8336C85.2405 23.8464 85.9946 23.7895 86.7256 24.0065C87.6387 24.278 88.119 24.8941 88.1086 25.755C88.0981 26.6089 87.6421 27.1519 86.7058 27.4072C85.9714 27.6079 85.2184 27.551 84.4689 27.5615C84.2067 27.5649 84.2136 27.399 84.2136 27.2157C84.216 26.6959 84.2136 26.1761 84.2136 25.6564L84.2148 25.6575Z" fill="black"/>
<path d="M84.2121 19.7542C84.2957 19.3795 83.9847 18.616 84.3339 18.5035C84.9721 18.2981 85.7413 18.3271 86.4212 18.6253C86.8691 18.8214 87.1754 19.1382 87.245 19.6498C87.3668 20.5536 86.9097 21.1837 86.0059 21.3391C85.9873 21.3426 85.9676 21.3426 85.949 21.3449C84.7919 21.4996 84.2133 20.9694 84.2133 19.7542H84.2121Z" fill="black"/>
</svg>
