<svg width="32" height="32" viewBox="0 0 32 32" fill="none" xmlns="http://www.w3.org/2000/svg">
<path d="M20.6667 18.6666H19.6134L19.24 18.3066C20.0733 17.3386 20.6823 16.1983 21.0234 14.9675C21.3646 13.7366 21.4294 12.4455 21.2134 11.1866C20.5867 7.47997 17.4934 4.51997 13.76 4.06663C12.4475 3.90059 11.1144 4.037 9.86273 4.46542C8.61104 4.89384 7.47395 5.60292 6.53847 6.53841C5.60299 7.47389 4.8939 8.61098 4.46548 9.86267C4.03706 11.1144 3.90065 12.4475 4.06669 13.76C4.52003 17.4933 7.48003 20.5866 11.1867 21.2133C12.4456 21.4294 13.7366 21.3645 14.9675 21.0234C16.1984 20.6822 17.3386 20.0732 18.3067 19.24L18.6667 19.6133V20.6666L24.3334 26.3333C24.88 26.88 25.7734 26.88 26.32 26.3333C26.8667 25.7866 26.8667 24.8933 26.32 24.3466L20.6667 18.6666ZM12.6667 18.6666C9.34669 18.6666 6.66669 15.9866 6.66669 12.6666C6.66669 9.34663 9.34669 6.66663 12.6667 6.66663C15.9867 6.66663 18.6667 9.34663 18.6667 12.6666C18.6667 15.9866 15.9867 18.6666 12.6667 18.6666Z" fill="black"/>
</svg>
