<svg width="32" height="32" viewBox="0 0 32 32" fill="none" xmlns="http://www.w3.org/2000/svg">
<g clip-path="url(#clip0_1638_2863)">
<path d="M22.6667 14.6667C23.0203 14.6667 23.3594 14.8071 23.6095 15.0572C23.8595 15.3072 24 15.6464 24 16V17.3333H26C26.5304 17.3333 27.0391 17.544 27.4142 17.9191C27.7893 18.2942 28 18.8029 28 19.3333V23.3333C28 23.8638 27.7893 24.3725 27.4142 24.7475C27.0391 25.1226 26.5304 25.3333 26 25.3333H24V26.6667C24 27.0203 23.8595 27.3594 23.6095 27.6095C23.3594 27.8595 23.0203 28 22.6667 28C22.313 28 21.9739 27.8595 21.7239 27.6095C21.4738 27.3594 21.3333 27.0203 21.3333 26.6667V25.3333H19.3333C18.8029 25.3333 18.2942 25.1226 17.9191 24.7475C17.544 24.3725 17.3333 23.8638 17.3333 23.3333V19.3333C17.3333 18.8029 17.544 18.2942 17.9191 17.9191C18.2942 17.544 18.8029 17.3333 19.3333 17.3333H21.3333V16C21.3333 15.6464 21.4738 15.3072 21.7239 15.0572C21.9739 14.8071 22.313 14.6667 22.6667 14.6667ZM6.66667 20C7.02029 20 7.35943 20.1405 7.60948 20.3905C7.85952 20.6406 8 20.9797 8 21.3333V22.6667C8 23.0203 8.14048 23.3594 8.39052 23.6095C8.64057 23.8595 8.97971 24 9.33333 24H13.3333C13.687 24 14.0261 24.1405 14.2761 24.3905C14.5262 24.6406 14.6667 24.9797 14.6667 25.3333C14.6667 25.687 14.5262 26.0261 14.2761 26.2761C14.0261 26.5262 13.687 26.6667 13.3333 26.6667H9.33333C8.27247 26.6667 7.25505 26.2452 6.50491 25.4951C5.75476 24.7449 5.33333 23.7275 5.33333 22.6667V21.3333C5.33333 20.9797 5.47381 20.6406 5.72386 20.3905C5.97391 20.1405 6.31304 20 6.66667 20ZM25.3333 20H24V22.6667H25.3333V20ZM21.3333 20H20V22.6667H21.3333V20ZM12.6667 4C13.0203 4 13.3594 4.14048 13.6095 4.39052C13.8595 4.64057 14 4.97971 14 5.33333C14 5.68696 13.8595 6.02609 13.6095 6.27614C13.3594 6.52619 13.0203 6.66667 12.6667 6.66667H6.66667V9.33333H12C12.3536 9.33333 12.6928 9.47381 12.9428 9.72386C13.1929 9.97391 13.3333 10.313 13.3333 10.6667C13.3333 11.0203 13.1929 11.3594 12.9428 11.6095C12.6928 11.8595 12.3536 12 12 12H6.66667V14.6667H13.3333C13.687 14.6667 14.0261 14.8071 14.2761 15.0572C14.5262 15.3072 14.6667 15.6464 14.6667 16C14.6667 16.3536 14.5262 16.6928 14.2761 16.9428C14.0261 17.1929 13.687 17.3333 13.3333 17.3333H5.46667C5.07768 17.3333 4.70463 17.1788 4.42958 16.9038C4.15452 16.6287 4 16.2557 4 15.8667V5.46667C4 5.07768 4.15452 4.70463 4.42958 4.42958C4.70463 4.15452 5.07768 4 5.46667 4H12.6667ZM22.6667 5.33333C23.7275 5.33333 24.7449 5.75476 25.4951 6.50491C26.2452 7.25505 26.6667 8.27247 26.6667 9.33333V12C26.6667 12.3536 26.5262 12.6928 26.2761 12.9428C26.0261 13.1929 25.687 13.3333 25.3333 13.3333C24.9797 13.3333 24.6406 13.1929 24.3905 12.9428C24.1405 12.6928 24 12.3536 24 12V9.33333C24 8.97971 23.8595 8.64057 23.6095 8.39052C23.3594 8.14048 23.0203 8 22.6667 8H18.6667C18.313 8 17.9739 7.85952 17.7239 7.60948C17.4738 7.35943 17.3333 7.02029 17.3333 6.66667C17.3333 6.31304 17.4738 5.97391 17.7239 5.72386C17.9739 5.47381 18.313 5.33333 18.6667 5.33333H22.6667Z" fill="black"/>
</g>
<defs>
<clipPath id="clip0_1638_2863">
<rect width="32" height="32" fill="white"/>
</clipPath>
</defs>
</svg>
